<svg xmlns="http://www.w3.org/2000/svg" viewBox="0 0 200 200" width="100%" height="100%">
  <defs>
    <linearGradient id="medBg" x1="0%" y1="0%" x2="100%" y2="100%">
      <stop offset="0%" stop-color="#EFF6FF"/>
      <stop offset="100%" stop-color="#DBEAFE"/>
    </linearGradient>
    <linearGradient id="blisterGrad" x1="0%" y1="0%" x2="100%" y2="100%">
      <stop offset="0%" stop-color="#FFFFFF"/>
      <stop offset="100%" stop-color="#E2E8F0"/>
    </linearGradient>
    <linearGradient id="capsuleRed" x1="0%" y1="0%" x2="100%" y2="0%">
      <stop offset="0%" stop-color="#EF4444"/>
      <stop offset="100%" stop-color="#DC2626"/>
    </linearGradient>
    <linearGradient id="capsuleBlue" x1="0%" y1="0%" x2="100%" y2="0%">
      <stop offset="0%" stop-color="#3B82F6"/>
      <stop offset="100%" stop-color="#1D4ED8"/>
    </linearGradient>
    <linearGradient id="pillGrad" x1="0%" y1="0%" x2="100%" y2="100%">
      <stop offset="0%" stop-color="#60A5FA"/>
      <stop offset="100%" stop-color="#2563EB"/>
    </linearGradient>
    <filter id="medShadow" x="-10%" y="-10%" width="130%" height="130%">
      <feDropShadow dx="0" dy="4" stdDeviation="6" flood-color="#1E3A8A" flood-opacity="0.15"/>
    </filter>
  </defs>
  <rect width="200" height="200" rx="36" fill="url(#medBg)"/>
  
  <!-- Blister Pack -->
  <g filter="url(#medShadow)" transform="rotate(-10 90 100)">
    <rect x="35" y="45" width="90" height="110" rx="12" fill="url(#blisterGrad)" stroke="#CBD5E1" stroke-width="2"/>
    <!-- Blister grid -->
    <rect x="47" y="57" width="28" height="18" rx="9" fill="url(#pillGrad)"/>
    <rect x="85" y="57" width="28" height="18" rx="9" fill="url(#pillGrad)"/>
    <rect x="47" y="85" width="28" height="18" rx="9" fill="url(#pillGrad)"/>
    <rect x="85" y="85" width="28" height="18" rx="9" fill="url(#pillGrad)"/>
    <rect x="47" y="113" width="28" height="18" rx="9" fill="url(#pillGrad)"/>
    <rect x="85" y="113" width="28" height="18" rx="9" fill="url(#pillGrad)"/>
    <!-- Foil shine -->
    <line x1="38" y1="48" x2="122" y2="48" stroke="#FFFFFF" stroke-width="2" stroke-linecap="round"/>
  </g>

  <!-- Large 3D Capsule in Foreground -->
  <g filter="url(#medShadow)" transform="rotate(35 130 110)">
    <rect x="100" y="55" width="40" height="50" rx="20" fill="url(#capsuleRed)"/>
    <rect x="100" y="95" width="40" height="50" rx="20" fill="url(#capsuleBlue)"/>
    <rect x="99" y="93" width="42" height="4" fill="#FFFFFF" opacity="0.9"/>
    <!-- Capsule Gloss -->
    <ellipse cx="112" cy="72" rx="4" ry="10" fill="#FFFFFF" opacity="0.6"/>
    <ellipse cx="112" cy="120" rx="4" ry="10" fill="#FFFFFF" opacity="0.4"/>
  </g>

  <!-- Rx Medical Cross Badge -->
  <circle cx="155" cy="45" r="18" fill="#2563EB" filter="url(#medShadow)"/>
  <path d="M155 35 V55 M145 45 H165" stroke="#FFFFFF" stroke-width="4" stroke-linecap="round"/>
</svg>